# xmcd CD database file
#
# Track frame offsets:
#	150
#	18076
#	31589
#	48449
#	60986
#	72068
#	82364
#
# Disc length: 1280 seconds
#
# Revision: 0
# Processed by: cddbd v1.5.2PL0 Copyright (c) Steve Scherf et al.
# Submitted via: CDex 1.70beta2
#
DISCID=4c04fe07
DTITLE=BLANKFIELD - Fast Foward To End Of East
DYEAR=2009
DGENRE=東方アレンジ
TTITLE0=Last Remote
TTITLE1=Poison and Medicine
TTITLE2=Guity People, Innocent Doll
TTITLE3=The Princess Is Dead
TTITLE4=Green Jealous
TTITLE5=Half Ghost
TTITLE6=Far From Truth
EXTD=YEAR: 2009
EXTT0=
EXTT1=
EXTT2=
EXTT3=
EXTT4=
EXTT5=
EXTT6=
PLAYORDER=
